<svg xmlns="http://www.w3.org/2000/svg" xmlns:xlink="http://www.w3.org/1999/xlink" width="500" height="300" viewBox="0 0 500 300">
  <defs>
    <clipPath id="clip-path">
      <rect id="Rectangle_24" data-name="Rectangle 24" width="422" height="252.116" fill="none"/>
    </clipPath>
    <clipPath id="clip-Kolkata">
      <rect width="500" height="300"/>
    </clipPath>
  </defs>
  <g id="Kolkata" clip-path="url(#clip-Kolkata)">
    <rect width="500" height="300" fill="#fff6ef"/>
    <g id="Group_42" data-name="Group 42" transform="translate(39 24)">
      <g id="Group_41" data-name="Group 41" clip-path="url(#clip-path)">
        <path id="Path_736" data-name="Path 736" d="M202.982,37.767a34.216,34.216,0,0,0,8.984,4.676,35.838,35.838,0,0,1,7.455-2.5,35.4,35.4,0,0,1,17.15.5,34.728,34.728,0,0,0-33.589-2.681" transform="translate(-27.833 -4.751)" fill="#d9bf61"/>
        <path id="Path_737" data-name="Path 737" d="M214.369,53.288a35.774,35.774,0,0,1,6.049-5.024,35.4,35.4,0,0,1,16.173-5.726A34.729,34.729,0,0,0,204.3,52.174a34.2,34.2,0,0,0,10.067,1.114" transform="translate(-28.014 -5.721)" fill="#d9bf61"/>
        <path id="Path_738" data-name="Path 738" d="M274.711,65.219a34.167,34.167,0,0,0-5.182-8.7,35.83,35.83,0,0,1-7.655-1.8,35.391,35.391,0,0,1-14.319-9.45,34.722,34.722,0,0,0,27.155,19.95" transform="translate(-33.945 -6.207)" fill="#d9bf61"/>
        <path id="Path_739" data-name="Path 739" d="M220.949,62a35.854,35.854,0,0,1,3.824-6.869,35.4,35.4,0,0,1,13.013-11.183A34.724,34.724,0,0,0,211.16,64.6a34.18,34.18,0,0,0,9.789-2.6" transform="translate(-28.954 -6.026)" fill="#d9bf61"/>
        <path id="Path_740" data-name="Path 740" d="M216.892,10.87a34.186,34.186,0,0,0,3.489,9.509,35.8,35.8,0,0,1,7.192,3.176A35.391,35.391,0,0,1,239.9,35.483,34.724,34.724,0,0,0,216.892,10.87" transform="translate(-29.74 -1.49)" fill="#d9bf61"/>
        <path id="Path_741" data-name="Path 741" d="M272.95,46.811a35.818,35.818,0,0,1-7.787,1.091A35.4,35.4,0,0,1,248.4,44.263a34.726,34.726,0,0,0,32.529,8.791,34.19,34.19,0,0,0-7.976-6.243" transform="translate(-34.06 -6.069)" fill="#d9bf61"/>
        <path id="Path_742" data-name="Path 742" d="M227.956,56.6a34.5,34.5,0,0,0-5.328,17.306,34.166,34.166,0,0,0,8.189-5.96,35.843,35.843,0,0,1,1.086-7.787A35.374,35.374,0,0,1,240,45.03,34.515,34.515,0,0,0,227.956,56.6" transform="translate(-30.527 -6.175)" fill="#d9bf61"/>
        <path id="Path_743" data-name="Path 743" d="M252.108,10.346a35.805,35.805,0,0,1,.369,7.854,35.4,35.4,0,0,1-5.166,16.361,34.53,34.53,0,0,0,9.7-13.59,34.491,34.491,0,0,0,2.048-17.992,34.177,34.177,0,0,0-6.95,7.367" transform="translate(-33.911 -0.408)" fill="#d9bf61"/>
        <path id="Path_744" data-name="Path 744" d="M282.325,38.434a34.2,34.2,0,0,0-9.693-2.94,35.807,35.807,0,0,1-6.867,3.83,35.383,35.383,0,0,1-16.948,2.665,34.725,34.725,0,0,0,33.507-3.555" transform="translate(-34.118 -4.867)" fill="#d9bf61"/>
        <path id="Path_745" data-name="Path 745" d="M207.376,23.256a34.179,34.179,0,0,0,6.688,7.605,35.88,35.88,0,0,1,7.855.363,35.4,35.4,0,0,1,15.809,6.667,34.725,34.725,0,0,0-30.352-14.635" transform="translate(-28.435 -3.18)" fill="#d9bf61"/>
        <path id="Path_746" data-name="Path 746" d="M229.987,12.875a35.843,35.843,0,0,1,5.559,5.56,35.407,35.407,0,0,1,7.19,15.578A34.731,34.731,0,0,0,230.17,2.748a34.174,34.174,0,0,0-.183,10.127" transform="translate(-31.496 -0.377)" fill="#d9bf61"/>
        <path id="Path_747" data-name="Path 747" d="M249.06,62.711a35.4,35.4,0,0,1-4.213-16.631h0a34.724,34.724,0,0,0,6.623,33.039,34.194,34.194,0,0,0,2.036-9.921,35.88,35.88,0,0,1-4.446-6.485" transform="translate(-33.348 -6.318)" fill="#d9bf61"/>
        <path id="Path_748" data-name="Path 748" d="M264.521,74.317a34.162,34.162,0,0,0-1.687-9.987,35.837,35.837,0,0,1-6.488-4.44A35.393,35.393,0,0,1,246.408,45.9a34.725,34.725,0,0,0,18.113,28.414" transform="translate(-33.788 -6.294)" fill="#d9bf61"/>
        <path id="Path_749" data-name="Path 749" d="M242.333,70.459a35.917,35.917,0,0,1-1.8-7.654,35.386,35.386,0,0,1,2.081-17.03,34.721,34.721,0,0,0-5.761,33.2,34.163,34.163,0,0,0,5.482-8.516" transform="translate(-32.212 -6.277)" fill="#d9bf61"/>
        <path id="Path_750" data-name="Path 750" d="M268.621,24.585a35.83,35.83,0,0,1-5.019,6.052,35.39,35.39,0,0,1-14.842,8.608,34.72,34.72,0,0,0,29.961-15.421,34.21,34.21,0,0,0-10.1.761" transform="translate(-34.11 -3.254)" fill="#d9bf61"/>
        <path id="Path_751" data-name="Path 751" d="M258.964,23.116A35.382,35.382,0,0,1,248.235,36.5a34.52,34.52,0,0,0,13.955-9.167A34.494,34.494,0,0,0,270.6,11.3a34.188,34.188,0,0,0-9.142,4.358,35.87,35.87,0,0,1-2.494,7.457" transform="translate(-34.038 -1.55)" fill="#d9bf61"/>
        <path id="Path_752" data-name="Path 752" d="M245.442,33.694A34.726,34.726,0,0,0,245.02,0a34.168,34.168,0,0,0-3.829,9.376,35.833,35.833,0,0,1,3.175,7.194,35.391,35.391,0,0,1,1.076,17.123" transform="translate(-33.072 0)" fill="#d9bf61"/>
        <path id="Path_753" data-name="Path 753" d="M163.422,155.865a18.976,18.976,0,0,1-1.476,2.231l-.164.249a45.172,45.172,0,0,1-9.61,10.026,35.644,35.644,0,0,1-9.422,4.72,25.183,25.183,0,0,1-6.851,1.2,19.243,19.243,0,0,1-3.624-.212,6.357,6.357,0,0,1-4.949-3.609,13.024,13.024,0,0,1-.284-8.184c1.934-7.065,6.514-13.859,11.835-18.929a52.86,52.86,0,0,1,13.233-9.2c3.7-1.761,8.632-3.753,13.935-3.663a4.814,4.814,0,0,1,3.129,1.092,2.693,2.693,0,0,1,.931,2.111,8.042,8.042,0,0,1-2.451,6.013c-4.062,4.13-10.208,7.1-18.259,8.763-1.933.4-4.618-.028-5.554-1.851l-.184-.355.409.044c6.162.667,12.437-.926,16.786-4.262,1.532-1.219,3.461-3.441,3.234-5.664-.153-1.493-1.77-2.42-3.4-2.42h-.005a16.749,16.749,0,0,0-8.88,2.577,39.517,39.517,0,0,0-14.31,14.795c-2.758,5.287-4.008,9.66-3.93,13.759a4.941,4.941,0,0,0,2.971,4.765,7.946,7.946,0,0,0,2.711.433,16.424,16.424,0,0,0,6.762-1.274,32.162,32.162,0,0,0,12.828-10.53,42.194,42.194,0,0,0,2.906-4.207c.471-.811.784-1.52,1.25-2.461l.817-1.837c.14-.324.4-.354.419.054a11.936,11.936,0,0,1-.809,5.825" transform="translate(-17.349 -17.893)"/>
        <path id="Path_754" data-name="Path 754" d="M12.521,168.307c6.918,4.971,18.295,5.083,26.482-.607a33.274,33.274,0,0,0,10.54-11.971,43.37,43.37,0,0,0,2.159-4.064c4.3-8.952,9.627-20.273,14.131-30.6,1.355-3.108-.441-3.835-2.556-2.785a.443.443,0,0,1-.41-.782,44.186,44.186,0,0,1,5.372-3.541c3-1.783,9.155-4.288,13.622-4.642.4-.041.488.229.16.365-4.009,1.607-7.311,6.569-9.01,10.321l-7.12,15.93c-7.872,16.988-7.857,17.224-10.021,21.053C46.89,172.877,24.577,178.778,11.3,170.77a28.821,28.821,0,0,1-4.539-3.437C5.6,166.249,4,164.289,3.882,162.141a2.826,2.826,0,0,1,2.435-3.179,1.821,1.821,0,0,1,2.175,1.986,9.068,9.068,0,0,0,4.029,7.359" transform="translate(-0.531 -14.989)"/>
        <path id="Path_755" data-name="Path 755" d="M88.625,109.544c-3.257,7.31-9.152,20.121-9.282,20.4-9.957,21.622-16.22,34.78-17.875,38.314l-.4.771,8.193-1.5.271-.385c3.248-6.394,12.845-18.187,19.421-25.03,5.684-6.076,12.908-11.407,15.461-11.407,1.325,0,2.58.247,2.586,1.542,0,1.038-.6,2.628-1.825,4.867-8.6,16.176-13.361,25.14-14.253,31.175l-.122.878,1.127-.424c7.062-2.812,8.756-3.239,12.979-5.06.509-.217.108-1.054-.441-.835a8.973,8.973,0,0,1-3.533.79,1.458,1.458,0,0,1-1.347-1.445c0-1.233,2.9-6.933,10.5-21.751,3-5.715,4.35-8.309,5.064-9.911a8.483,8.483,0,0,0,.639-1.8,5.664,5.664,0,0,0,.085-1.213V127.4c0-1.44-2.013-2.233-3.641-2.233-3.033,0-8.072,1.646-14.395,6.074-6,4.249-10.548,9.063-21.519,19.55l5.262-11.048c1.2-2.678,4.127-9.26,5.05-11.188,2.817-5.894,6.942-15.2,9.229-20.629l.42-.927c1.2-2.775,4.157-9.521,5.422-11.973.223-.446-.162-.757-.583-.41A37.3,37.3,0,0,1,87.35,98.667c-11.282,1.184-22.782.537-41.465,2.227-6.476-4.387-13.174-8.305-23.911-7.517-8.1.577-16.533,4.534-19.344,11.467a5.473,5.473,0,0,0,.157,4.991,2.822,2.822,0,0,0,3.091,1.544,1.645,1.645,0,0,0,1.581-1.425,2.124,2.124,0,0,0-.279-1.079,4.846,4.846,0,0,1-.532-3.222c.453-3.606,2.873-6.338,6.58-8.106,6.108-2.91,16.5-1.9,22.247,1.569a20.886,20.886,0,0,1,4.232,2.82c-1.935.324-3.611.6-5.658,1.021-10.513,2.289-23.918,8.21-30,17.964C.9,125.964-1.036,131.613.588,137.311c1.866,6.548,6.963,9.279,13.179,10.6a36.446,36.446,0,0,0,6.254.419c8.179,0,17.213-3.73,24.628-10.38,8.617-8.891,10.439-18.969,5.506-30.853a11.5,11.5,0,0,0-1.367-2.577c1.005-.095,1.511-.134,3.517-.27,12.431-.846,25.41-1.178,35.04-.251,2.043.266,2.73,1.133,2.133,3.351a18.225,18.225,0,0,1-.853,2.188M35.9,141.632c-7.419,4.113-16.183,4.417-22.332,1.148-4.756-2.528-7.29-7.027-7.542-12.635.23-7.077,4.84-15.59,16.338-20.55,6.638-3.158,20.378-4.583,20.378-4.583,3.219,2.822,5.081,8.053,5.974,12.637,1.786,9.167-2.49,17.825-12.815,23.984" transform="translate(0 -12.79)"/>
        <path id="Path_756" data-name="Path 756" d="M207.02,110.795c-8,5.574-12.841,14.555-14.324,23.438a37.309,37.309,0,0,0,.661,15.421,28.286,28.286,0,0,0,9.095,14.128c5.391,4.769,12.066,6.985,18.93,7.769a41.292,41.292,0,0,0,4.876.254c9.861-.036,16-2.325,24.005-7.4,12.095-7.677,22.031-20.411,24.563-34.339,1.582-8.7-.038-14.216-2.309-20.03A24.693,24.693,0,0,0,259.342,96.5a32.589,32.589,0,0,0-15.267-2.938A33.552,33.552,0,0,0,225.587,99.8a38.28,38.28,0,0,0-6.215,5.737,33.693,33.693,0,0,0-12.351,5.261m10.12-1.7a36.154,36.154,0,0,0-5,13.037c-1.013,8.036.249,15.159,3.416,23.334.629,1.63.954,2.572,1.3,3.754a17.6,17.6,0,0,1-.019,10.929,6.762,6.762,0,0,1-3,3.614,34.522,34.522,0,0,1-3.669-2.232c-.364-.256-.607-.461-.88-.688-3.741-3.12-7.562-6.863-9.24-14.512a42.486,42.486,0,0,1-.873-8.259,37.379,37.379,0,0,1,3.758-16.475c1.749-3.533,5.192-8.381,9.323-10.561a20.675,20.675,0,0,1,4.877-1.942m22.156-12a23.886,23.886,0,0,1,4.636-.452,22.776,22.776,0,0,1,7.825,1.355A20.169,20.169,0,0,1,259.584,103a21.365,21.365,0,0,1,4.188,6.316c2.829,5.951,3.59,11.991,3.052,20.041a44.481,44.481,0,0,1-9.946,25.158,37.2,37.2,0,0,1-17.115,11.4c-6.119,1.9-16.113,1.74-22.139-.541-.456-.173-.559-.217-1.006-.4a6.986,6.986,0,0,0,1.489-1.271c.177-.185.386-.407.536-.565,1.828-1.922,3.3-5.917,3.521-8.694.56-6.962-1.227-10.458-3.091-17.255a47.275,47.275,0,0,1-1.283-6.013c-1.029-7.145-.669-13.58,1.871-19.062,3.622-7.782,10.1-13.175,19.637-15.03" transform="translate(-26.354 -12.82)"/>
        <path id="Path_757" data-name="Path 757" d="M369.605,155.9a19.04,19.04,0,0,1-1.474,2.231l-.164.249a45.217,45.217,0,0,1-9.612,10.026,35.641,35.641,0,0,1-9.421,4.72,25.2,25.2,0,0,1-6.852,1.2,19.231,19.231,0,0,1-3.623-.212,6.357,6.357,0,0,1-4.949-3.609,13.024,13.024,0,0,1-.283-8.184c1.934-7.065,6.514-13.859,11.834-18.929a52.875,52.875,0,0,1,13.233-9.2c3.7-1.761,8.632-3.753,13.935-3.663a4.815,4.815,0,0,1,3.13,1.092,2.7,2.7,0,0,1,.931,2.111,8.042,8.042,0,0,1-2.451,6.013c-4.063,4.13-10.208,7.1-18.259,8.763-1.934.4-4.618-.028-5.555-1.851l-.183-.355.408.044c6.163.667,12.437-.926,16.786-4.262,1.532-1.219,3.462-3.441,3.235-5.664-.154-1.493-1.771-2.42-3.4-2.42h-.005a16.748,16.748,0,0,0-8.879,2.577,39.517,39.517,0,0,0-14.31,14.795c-2.758,5.287-4.008,9.66-3.93,13.759a4.941,4.941,0,0,0,2.97,4.765,7.952,7.952,0,0,0,2.712.433,16.417,16.417,0,0,0,6.762-1.274,32.155,32.155,0,0,0,12.828-10.53,42.2,42.2,0,0,0,2.907-4.207c.471-.811.783-1.52,1.249-2.461l.818-1.837c.14-.324.394-.354.419.054a11.918,11.918,0,0,1-.809,5.825" transform="translate(-45.621 -17.898)"/>
        <path id="Path_758" data-name="Path 758" d="M431.841,148.668c-.208.32-.476.136-.4-.265a10.908,10.908,0,0,1,4.75-7.6,14.939,14.939,0,0,1,8.969-2.619,6.194,6.194,0,0,1,5.865,5.155c.425,2.734-.333,5.623-2.306,9.058A48.675,48.675,0,0,1,435.2,167.244c-3.836,2.709-7.265,5.022-12.617,6.447a21.285,21.285,0,0,1-6.179.652,10.2,10.2,0,0,1-5.141-1.237c-2.28-1.369-3.641-4.823-3.364-7.616.276-5.308,2.715-10.795,7.471-16.47a53.474,53.474,0,0,1,20.048-14.657,45.617,45.617,0,0,1,14.078-3.489c.192,0,.714-.022.9-.028a11.519,11.519,0,0,1,1.476.048l.274.041-1.488,4.1-.162-.009c-6.9-.346-12.781.584-17.5,2.767a27.231,27.231,0,0,0-11.554,9.977c-3.288,4.842-5.565,9.624-6.322,14.249-.413,2.52-.331,4.965.853,6.438,1.286,1.705,4.723,2.288,7.114,2a17.67,17.67,0,0,0,7.922-3.005c5.723-4.028,8.976-9.3,11.66-14.864,1.118-2.542,2.1-5.271,1.678-7.97a3.5,3.5,0,0,0-1.424-2.519,3.816,3.816,0,0,0-2.671-.4c-3.3.429-5.5,2.8-7.168,5.118-.449.623-1.067,1.533-1.246,1.853" transform="translate(-55.927 -17.941)"/>
        <path id="Path_759" data-name="Path 759" d="M385.322,137.526c4.518-2.351,10.258-4.458,14.675-6.918.213,4.755-2.571,9.252-4.6,13.664,5.689-3.838,11.24-8.126,17.522-11.454,2.685-1.42,6.375-2.863,9.726-1.9-.57,1.57-1.337,3.1-1.975,4.654A14.61,14.61,0,0,0,410.63,136.9a46.9,46.9,0,0,0-15.7,12.463c-5.2,6.987-8.555,15.326-11.834,22.9-2.355.462-5.6.96-7.939,1.458,4.965-10.42,10.712-21.294,14.489-32.017.468-1.319,1.092-3.369-.909-4.058-.819-.282-2.424.4-2.912.594s-.949-.465-.5-.711" transform="translate(-51.441 -17.909)"/>
        <path id="Path_760" data-name="Path 760" d="M316.735,96.461c-4.1,1.638-10.015,3.858-13.866,5.4-.723.289-1.64.639-2.492.989-.376.135-.17.937.33.814,1.471-.363,2.884-.958,4.3-.3,1.193.544,1.2,1.752.8,2.8l-.772,1.847-28.582,61.4a77.824,77.824,0,0,0,22.994-4.259c7.822-2.854,14.187-7.349,20.141-12.551,5.011-4.27,8.865-10.516,11.281-16.164a9.753,9.753,0,0,0,.118-7.851,5.732,5.732,0,0,0-4.372-2.524,26.166,26.166,0,0,0-11.014,1.794c-6.781,2.657-12.934,7.347-18.426,11.582,4.508-9.178,9.581-20.01,14.008-29.334l.436-.964,5.7-12.25c.218-.459-.009-.687-.585-.435m6.378,40.781c-1.1,3.889-3.675,8.166-6.082,11.59a38.68,38.68,0,0,1-16.336,13.33,31.766,31.766,0,0,1-14.972,2.15,85.468,85.468,0,0,1,11.588-19.555,65.359,65.359,0,0,1,13.231-11.79c2.423-1.494,5.156-2.978,8.264-2.99,1.415-.06,3.319.625,3.869,1.744a7.273,7.273,0,0,1,.439,5.521" transform="translate(-37.907 -13.213)"/>
        <path id="Path_761" data-name="Path 761" d="M483.083,115.589c1.626-.557,3.869-.116,4.419,1.437,1.422,3.075-3.415,6.9-6.77,4.718-2.571-1.889-.548-5.454,2.351-6.155" transform="translate(-65.756 -15.818)"/>
        <path id="Path_762" data-name="Path 762" d="M468.578,168.051l-14.258,5.556.007-.34c.14-5.806,2.892-11.2,5.554-16.417q.419-.818.829-1.631c.9-1.765,1.854-3.543,2.778-5.264,1.956-3.641,3.978-7.407,5.566-11.241a3.375,3.375,0,0,0,.277-2.723,1.612,1.612,0,0,0-1.261-.978,9.01,9.01,0,0,0-3.474.536.448.448,0,0,1-.369-.815c4.061-1.524,9.152-3.257,13.243-4.782l1.122-.417-.005.319c-.046,3.1-1.337,6.038-2.588,8.876l-.246.559c-2.114,4.571-4.474,9.14-6.756,13.559-1.42,2.752-2.887,5.6-4.281,8.41-.157.35-.326.707-.494,1.063a14.16,14.16,0,0,0-1.4,3.693,1.393,1.393,0,0,0,.236,1.1,2.207,2.207,0,0,0,1.914.922,15.066,15.066,0,0,0,3.137-.809c.632-.228.98.595.475.827" transform="translate(-62.296 -17.762)"/>
        <path id="Path_763" data-name="Path 763" d="M177.64,213.646a11.792,11.792,0,0,0-9.068-.31,10.181,10.181,0,0,0-3.522,2.27,11.43,11.43,0,0,0-2.5,3.786,13.678,13.678,0,0,0-.957,5.34,12.577,12.577,0,0,0,.717,4.31,10.019,10.019,0,0,0,2.067,3.436,9.315,9.315,0,0,0,3.3,2.272,11.561,11.561,0,0,0,4.479.815q.566,0,1.283-.058t1.392-.135a10.46,10.46,0,0,0,1.24-.213,3.2,3.2,0,0,0,.826-.292,8.018,8.018,0,0,0,.109-1.165c.014-.466.022-.983.022-1.554q0-3.144-.13-4.64t-.174-2.038c.289.053.675.1,1.152.135s1.167.059,2.067.059q1.566,0,2.326-.059c.507-.039.906-.083,1.2-.135a6.336,6.336,0,0,0-.152,1.01q-.066.7-.109,1.611t-.066,1.941c-.016.686-.022,1.34-.022,1.961v1.281c0,.647.006,1.249.022,1.805a6.265,6.265,0,0,0,.109,1.185,55.039,55.039,0,0,1-5.806,1.164,40.139,40.139,0,0,1-5.805.428,25.713,25.713,0,0,1-6.893-.874,16.4,16.4,0,0,1-5.436-2.563,12.24,12.24,0,0,1-3.566-4.076,11.185,11.185,0,0,1-1.282-5.378,14.45,14.45,0,0,1,1.369-6.466,12.923,12.923,0,0,1,3.783-4.62,16.832,16.832,0,0,1,5.719-2.777,26.189,26.189,0,0,1,7.133-.932,23.87,23.87,0,0,1,5.719.6,25.041,25.041,0,0,1,4.761,1.728q-.348,1.01-.674,1.98a18.335,18.335,0,0,0-.544,1.98h-.609a10.5,10.5,0,0,0-3.478-2.816" transform="translate(-21.18 -28.819)" fill="#d9bf61"/>
        <path id="Path_764" data-name="Path 764" d="M206.182,225.2v1.592q0,3.223.09,5.728t.274,4.912q-.774-.078-1.682-.078h-4.088q-.91,0-1.681.078.18-2.406.272-4.912t.091-5.728v-5.281q0-3.222-.091-5.727t-.272-5.029c.514.053,1.074.1,1.681.135s1.287.06,2.044.06q1.226,0,2.794-.1t3.884-.1q1.727,0,2.954.078a19.63,19.63,0,0,1,2.113.233,8.5,8.5,0,0,1,1.545.408,8.288,8.288,0,0,1,1.249.6,6.713,6.713,0,0,1,2.158,2.116,5.534,5.534,0,0,1,.8,3.01,6.2,6.2,0,0,1-1.818,4.621,10.418,10.418,0,0,1-5.224,2.524q2.18,3.3,4.679,6.582t5,6.5q-1.046-.078-2.044-.078h-4.112q-1.021,0-2.067.078L206.59,225.2Zm7.177-7.145a7.4,7.4,0,0,0-.409-2.717A3.131,3.131,0,0,0,211.7,213.8a5.25,5.25,0,0,0-2.18-.679,28.54,28.54,0,0,0-3.2-.155q-.137,5.282-.135,10.563c.181.025.356.045.522.058s.324.02.477.02a6.806,6.806,0,0,0,4.588-1.379,5.228,5.228,0,0,0,1.59-4.175" transform="translate(-27.3 -28.899)" fill="#d9bf61"/>
        <path id="Path_765" data-name="Path 765" d="M261.137,237.4q-1.091-.078-2.067-.078h-3.861q-.977,0-1.931.078-.727-1.9-1.5-3.883t-1.636-3.961q-1.454-.038-2.907-.058t-2.907-.02q-1.183,0-2.363.02t-2.362.058q-.911,1.982-1.682,3.961t-1.408,3.883a7.567,7.567,0,0,0-1.068-.078h-2.157a9.773,9.773,0,0,0-1.181.078q.545-1.008,1.454-2.8t2-4.038q1.091-2.251,2.34-4.834t2.5-5.223q1.248-2.639,2.452-5.2t2.2-4.777c.3.053.591.1.864.136a6.47,6.47,0,0,0,1.726,0c.273-.039.56-.084.864-.136q1.452,3.3,3.112,7.067t3.339,7.4q1.68,3.631,3.271,6.892t2.908,5.514m-16.083-19.376q-1.182,2.33-2.226,4.6t-2.044,4.64H249.1q-1-2.367-1.976-4.64t-2.067-4.6" transform="translate(-31.826 -28.868)" fill="#d9bf61"/>
        <path id="Path_766" data-name="Path 766" d="M273.919,218.482q0-2.679-.087-4.5t-.13-3.223a9.917,9.917,0,0,0,3.914,0q4.739,4.7,9.372,9.241t9.5,9.241v-7.144q0-1.9-.022-3.747t-.043-3.4q-.023-1.552-.088-2.679a11.521,11.521,0,0,0-.151-1.514,9.917,9.917,0,0,0,3.914,0q-.219,3.533-.349,6.387t-.217,5.378q-.089,2.525-.109,4.99t-.022,5.262v4.659c-.581-.053-1.174-.078-1.783-.078a16.181,16.181,0,0,0-1.7.078q-8.959-9.319-19-18.754-.045,1.126-.066,2.251t-.021,2.291v4.5q0,2.33.021,3.961t.066,2.757q.043,1.126.086,1.845c.028.479.059.86.087,1.145a6.975,6.975,0,0,0-1.043-.078h-1q-1,0-2,.078a19.284,19.284,0,0,0,.217-2.212q.131-1.9.282-4.641t.261-5.941q.107-3.2.109-6.155" transform="translate(-37.441 -28.899)" fill="#d9bf61"/>
        <path id="Path_767" data-name="Path 767" d="M314.523,221.511q0-3.223-.086-5.727t-.261-5.029c.493.052,1.028.1,1.608.135s1.233.059,1.958.059q1.435,0,3.218-.1t4.654-.1a35.521,35.521,0,0,1,6.806.6A14.919,14.919,0,0,1,337.7,213.4a9.678,9.678,0,0,1,3.436,3.864,13.6,13.6,0,0,1,1.218,6.115,13.8,13.8,0,0,1-1.2,5.824,13.388,13.388,0,0,1-3.262,4.446,14.319,14.319,0,0,1-4.784,2.816,17.139,17.139,0,0,1-5.806.971q-3.262,0-5.566-.039t-4-.039h-1.958a15.2,15.2,0,0,0-1.608.078q.172-2.406.261-4.912t.086-5.728Zm6.437,8.115v2.33q0,1.126.022,2.058c.014.621.022,1.023.022,1.2q.651.04,1.564.078t2.262.039a10.284,10.284,0,0,0,7.786-2.99q2.871-2.99,2.87-9.047a12.144,12.144,0,0,0-.718-4.31,9.275,9.275,0,0,0-2.022-3.243,8.844,8.844,0,0,0-3.131-2.058,11.112,11.112,0,0,0-4.089-.718q-1.564,0-2.543.059t-1.979.135c0,.181-.009.582-.022,1.2s-.022,1.32-.022,2.1v13.163Z" transform="translate(-43.08 -28.899)" fill="#d9bf61"/>
        <path id="Path_768" data-name="Path 768" d="M166.348,283.612a37.04,37.04,0,0,0,.251,4.28,11.721,11.721,0,0,0-1.328-.069h-3.231a11.71,11.71,0,0,0-1.328.069q.142-2.139.216-4.367t.072-5.09v-4.694q0-2.864-.072-5.091t-.216-4.471q.61.07,1.328.122t1.615.052q.9,0,1.615-.052c.479-.035.921-.075,1.328-.122a23.192,23.192,0,0,0-.233,3.107q-.054,2.071-.054,4.59v3.314q1.221-1.38,2.621-3.02t2.692-3.193q1.292-1.553,2.333-2.847t1.507-1.951q.5.07,1.005.122a9.8,9.8,0,0,0,1.005.052q.5,0,1.023-.052t1.13-.122q-.611.589-1.866,1.9t-2.674,2.83q-1.419,1.52-2.71,2.951t-2.01,2.261q1.149,1.692,2.549,3.728t2.782,3.986q1.381,1.951,2.567,3.59t1.9,2.468q-1.042-.07-1.866-.069h-3.177c-.515,0-1.035.022-1.562.069q-1.83-2.622-3.59-5.333t-3.589-5.4h-.072q0,3.763.036,6.454" transform="translate(-22.037 -36.224)" fill="#d9bf61"/>
        <path id="Path_769" data-name="Path 769" d="M184.687,276.017a11.969,11.969,0,0,1,3.7-8.732,12.643,12.643,0,0,1,4.259-2.658,15.328,15.328,0,0,1,5.563-.966,17.524,17.524,0,0,1,5.246.758,12.011,12.011,0,0,1,4.224,2.278,10.6,10.6,0,0,1,2.834,3.848,13.244,13.244,0,0,1,1.039,5.437,11.684,11.684,0,0,1-1,4.831,12.111,12.111,0,0,1-2.78,3.917,12.623,12.623,0,0,1-4.243,2.606,15.2,15.2,0,0,1-5.422.932,19.67,19.67,0,0,1-5.227-.672,11.285,11.285,0,0,1-4.26-2.175,10.519,10.519,0,0,1-2.869-3.83,13.426,13.426,0,0,1-1.056-5.574m21.088-.76a13.322,13.322,0,0,0-.563-4.02,9.156,9.156,0,0,0-1.568-3.02,6.844,6.844,0,0,0-2.428-1.916,7.222,7.222,0,0,0-3.117-.672,6.2,6.2,0,0,0-3.221.845,7.6,7.6,0,0,0-2.412,2.3,10.877,10.877,0,0,0-1.5,3.4,16.345,16.345,0,0,0-.511,4.158,15.655,15.655,0,0,0,.6,4.66,8.36,8.36,0,0,0,1.62,3.055,6.019,6.019,0,0,0,2.359,1.673,7.721,7.721,0,0,0,2.816.519,7.237,7.237,0,0,0,3.028-.656,6.82,6.82,0,0,0,2.517-2,10.493,10.493,0,0,0,1.725-3.417,16.422,16.422,0,0,0,.651-4.9" transform="translate(-25.324 -36.153)" fill="#d9bf61"/>
        <path id="Path_770" data-name="Path 770" d="M220.912,268.651q-.072-2.227-.216-4.471c.407.047.849.087,1.329.122s1.016.052,1.615.052,1.136-.017,1.614-.052.922-.075,1.329-.122q-.144,2.246-.216,4.471t-.072,5.09v4.695q0,1.966.018,3.8t.053,3.176q2.046,0,4.092-.1t4.129-.346q-.072.38-.108.691a10.543,10.543,0,0,0,0,1.726,2.417,2.417,0,0,0,.108.518q-.969-.036-2.388-.053t-3.9-.016h-5.689c-.538,0-.946.005-1.22.016s-.509.029-.7.053q.144-2.141.216-4.367t.072-5.09v-4.695q0-2.863-.072-5.09" transform="translate(-30.262 -36.224)" fill="#d9bf61"/>
        <path id="Path_771" data-name="Path 771" d="M248.172,283.612a37.047,37.047,0,0,0,.251,4.28,11.72,11.72,0,0,0-1.328-.069h-3.231a11.709,11.709,0,0,0-1.328.069q.142-2.139.216-4.367t.072-5.09v-4.694q0-2.864-.072-5.091t-.216-4.471q.61.07,1.328.122t1.615.052q.9,0,1.615-.052c.479-.035.921-.075,1.328-.122a23.2,23.2,0,0,0-.233,3.107q-.054,2.071-.054,4.59v3.314q1.221-1.38,2.621-3.02t2.692-3.193q1.292-1.553,2.333-2.847t1.507-1.951q.5.07,1.005.122a9.8,9.8,0,0,0,1.005.052q.5,0,1.023-.052t1.13-.122q-.611.589-1.866,1.9t-2.674,2.83q-1.419,1.52-2.71,2.951t-2.011,2.261q1.149,1.692,2.549,3.728t2.782,3.986q1.381,1.951,2.567,3.59t1.9,2.468q-1.042-.07-1.866-.069h-3.177c-.515,0-1.035.022-1.562.069q-1.83-2.622-3.59-5.333t-3.589-5.4h-.072q0,3.763.036,6.454" transform="translate(-33.257 -36.224)" fill="#d9bf61"/>
        <path id="Path_772" data-name="Path 772" d="M290.637,287.865q-.879-.07-1.665-.069h-3.109q-.788,0-1.556.069-.585-1.692-1.207-3.452t-1.317-3.521q-1.171-.034-2.342-.052t-2.342-.017q-.951,0-1.9.017t-1.9.052q-.733,1.76-1.354,3.521t-1.135,3.452a5.464,5.464,0,0,0-.859-.069H268.21a7.058,7.058,0,0,0-.952.069q.439-.9,1.17-2.485t1.611-3.59q.876-2,1.884-4.3t2.012-4.641q1.006-2.347,1.975-4.625t1.775-4.245c.243.047.475.086.7.121a4.771,4.771,0,0,0,1.39,0c.219-.035.45-.074.7-.121l2.506,6.282q1.334,3.347,2.689,6.575t2.634,6.126q1.28,2.9,2.342,4.9m-12.952-17.223q-.951,2.071-1.793,4.09t-1.646,4.125h6.694q-.805-2.1-1.591-4.125t-1.664-4.09" transform="translate(-36.646 -36.197)" fill="#d9bf61"/>
        <path id="Path_773" data-name="Path 773" d="M301.672,267.977a8.375,8.375,0,0,0-.09-1.208q-.54,0-1.329.035t-1.687.086q-.9.052-1.831.138t-1.722.19q.071-.379.126-.759a5.416,5.416,0,0,0,0-1.519q-.054-.379-.126-.759,1.221.035,2.207.069t2.01.052q1.023.018,2.225.035t2.89.017q1.686,0,2.889-.017t2.208-.035q1-.017,1.956-.052t2.064-.069c-.048.254-.089.507-.125.759a5.331,5.331,0,0,0,0,1.519c.036.254.077.507.125.759q-.718-.1-1.615-.19t-1.777-.138q-.88-.052-1.669-.086c-.527-.023-.969-.035-1.328-.035a3.335,3.335,0,0,0-.054.483q-.018.311-.018.725v10.458q0,2.866.072,5.091t.215,4.366a11.73,11.73,0,0,0-1.328-.069h-3.231a11.709,11.709,0,0,0-1.328.069q.142-2.14.216-4.366t.072-5.091v-8.629q0-1-.018-1.829" transform="translate(-40.452 -36.224)" fill="#d9bf61"/>
        <path id="Path_774" data-name="Path 774" d="M339.37,287.865q-.879-.07-1.665-.069H334.6q-.788,0-1.556.069-.585-1.692-1.207-3.452t-1.317-3.521q-1.171-.034-2.342-.052t-2.342-.017q-.951,0-1.9.017t-1.9.052q-.733,1.76-1.354,3.521t-1.135,3.452a5.464,5.464,0,0,0-.859-.069h-1.737a7.058,7.058,0,0,0-.952.069q.439-.9,1.17-2.485t1.611-3.59q.876-2,1.884-4.3t2.012-4.641q1.006-2.347,1.975-4.625t1.775-4.245c.243.047.475.086.7.121a4.77,4.77,0,0,0,1.39,0c.219-.035.45-.074.7-.121l2.506,6.282q1.334,3.347,2.689,6.575t2.634,6.126q1.28,2.9,2.342,4.9m-12.952-17.223q-.951,2.071-1.793,4.09t-1.646,4.125h6.694q-.805-2.1-1.591-4.125t-1.664-4.09" transform="translate(-43.329 -36.197)" fill="#d9bf61"/>
      </g>
    </g>
  </g>
</svg>
